Coordinates
nRows=10
nColumns=38

# SIMM Motion File Header:
name Coordinates
datacolumns 38
datarows 10
otherdata 1
range 1.52450000000000020000 1.53350000000000010000

Units are S.I. units (second, meters, Newtons, ...)
Angles are in degrees.

endheader
time	pelvis_tilt	pelvis_list	pelvis_rotation	pelvis_tx	pelvis_ty	pelvis_tz	hip_flexion_r	hip_adduction_r	hip_rotation_r	knee_angle_r	ankle_angle_r	subtalar_angle_r	mtp_angle_r	hip_flexion_l	hip_adduction_l	hip_rotation_l	knee_angle_l	ankle_angle_l	subtalar_angle_l	mtp_angle_l	lumbar_extension	lumbar_bending	lumbar_rotation	arm_flex_r	arm_add_r	arm_rot_r	elbow_flex_r	pro_sup_r	wrist_flex_r	wrist_dev_r	arm_flex_l	arm_add_l	arm_rot_l	elbow_flex_l	pro_sup_l	wrist_flex_l	wrist_dev_l
      1.52450000000000020000	     -1.98752360007369600000	      2.87253225780967410000	      2.66099672140574710000	      0.95281661642117677000	      1.05486849571381170000	     -0.31214729899805227000	     -9.08970974765479940000	      3.09368960231101210000	      1.90272251076581170000	    -57.63062949193647500000	     -5.38319754228758280000	     -0.00000000000004007706	     -0.00000000000010218405	     21.81827145461777900000	      7.65805220745423030000	      5.07510395372482040000	    -14.21662502515803600000	     -6.33130190703387270000	      0.00000000000003595843	     -0.00000000000001932378	     -5.18225114183579730000	     -1.90143536561693450000	     10.90952520279447300000	    -20.40457885315562700000	    -14.76259040027078000000	      6.28805262394181600000	    124.99700943742553000000	     95.90420665323327400000	      0.00000000000000897243	     -0.00000000000003693313	    -41.42629129342865500000	     -9.72499569432261700000	     -7.50510909751110500000	    129.09816590210568000000	     90.13473017442429100000	      0.00000000000004302160	     -0.00000000000001556463
      1.52550000000000010000	     -1.97359469937373280000	      2.88409149581072020000	      2.70444519786766200000	      0.95273382411514185000	      1.05429029307900430000	     -0.31217736081455449000	     -8.88605870969276170000	      3.11240132212269400000	      1.88021987516774370000	    -58.18117714954617300000	     -5.32876821016342550000	     -0.00000000000004015554	     -0.00000000000010263645	     21.79323656887383700000	      7.71927503088280620000	      5.27791889663162370000	    -14.39467946421418700000	     -6.25850292278037120000	      0.00000000000003614921	     -0.00000000000001936698	     -5.20522646950341010000	     -1.93747624116880820000	     10.80418046719649700000	    -20.51069896206494300000	    -14.74402619724031300000	      6.14855588647384280000	    124.83278672734509000000	     95.93239850877499500000	      0.00000000000000901395	     -0.00000000000003707206	    -41.29254329905182900000	     -9.77277234449149290000	     -7.45522546095643880000	    129.02821249857811000000	     90.05485755849537100000	      0.00000000000004320521	     -0.00000000000001561699
      1.52650000000000020000	     -1.96018498023641620000	      2.89459510732316440000	      2.74829660037137820000	      0.95264878810329234000	      1.05370165731924990000	     -0.31220828094769193000	     -8.67985952608835020000	      3.13188527662092090000	      1.85664555446952080000	    -58.73193027254323800000	     -5.27429862757323510000	     -0.00000000000004023249	     -0.00000000000010309110	     21.76953891128315600000	      7.78060390753554380000	      5.48499276623848250000	    -14.58120730730187700000	     -6.17187732661714340000	      0.00000000000003633898	     -0.00000000000001940865	     -5.22789348866724350000	     -1.97224178786228710000	     10.69813598047081300000	    -20.61715214789110500000	    -14.72590574524094700000	      6.00858522453237850000	    124.66766337986816000000	     95.95979363602302200000	      0.00000000000000905526	     -0.00000000000003720954	    -41.15744236832395600000	     -9.82195112674511610000	     -7.40473669521712540000	    128.95705736263253000000	     89.97509162769897300000	      0.00000000000004338858	     -0.00000000000001566998
      1.52750000000000010000	     -1.94735724507805630000	      2.90410308647946500000	      2.79251098109227770000	      0.95256143087392087000	      1.05310250996641130000	     -0.31224013615263591000	     -8.47105270747661980000	      3.15198868705210210000	      1.83195097493650440000	    -59.28288241521930500000	     -5.21964726004857750000	     -0.00000000000004031078	     -0.00000000000010354752	     21.74729151622157600000	      7.84210782173489030000	      5.69570634120180050000	    -14.77626780626887800000	     -6.07092181701620600000	      0.00000000000003652777	     -0.00000000000001944754	     -5.25019058843683960000	     -2.00578504144366930000	     10.59140816038746800000	    -20.72390528709656000000	    -14.70826915902030800000	      5.86821702885117260000	    124.50166750898653000000	     95.98631397677459600000	      0.00000000000000909645	     -0.00000000000003734585	    -41.02103587653902400000	     -9.87248264629555730000	     -7.35371120306270590000	    128.88471202813838000000	     89.89559681465875900000	      0.00000000000004357206	     -0.00000000000001572348
      1.52850000000000020000	     -1.93518968547367280000	      2.91268129124324070000	      2.83705122204580680000	      0.95247165491780650000	      1.05249275807117120000	     -0.31227300990743251000	     -8.25956017333467510000	      3.17255055755908620000	      1.80608797780360160000	    -59.83403508368743900000	     -5.16468012463875150000	     -0.00000000000004039092	     -0.00000000000010400443	     21.72663219388725900000	      7.90386344600231720000	      5.90943178348725340000	    -14.97992715597460900000	     -5.95519610841656010000	      0.00000000000003670964	     -0.00000000000001948664	     -5.27204211159540570000	     -2.03816629882658740000	     10.48401042033642800000	    -20.83092406360923500000	    -14.69115501198707100000	      5.72752410293253970000	    124.33482474248844000000	     96.01188381887558900000	      0.00000000000000913772	     -0.00000000000003748190	    -40.88336899853453600000	     -9.92431894135449260000	     -7.30221643403957280000	    128.81118617926725000000	     89.81653565419705400000	      0.00000000000004375599	     -0.00000000000001577892
      1.52950000000000010000	     -1.92376847442163880000	      2.92040195918653420000	      2.88188318752369050000	      0.95237934360820764000	      1.05187230736744850000	     -0.31230699195288369000	     -8.04529396924430350000	      3.19340177520234960000	      1.77900900561642940000	    -60.38539533300499300000	     -5.10927173690011130000	     -0.00000000000004047432	     -0.00000000000010446081	     21.70771427954785100000	      7.96595514496393960000	      6.12553554954265600000	    -15.19225496324867900000	     -5.82433412913774170000	      0.00000000000003689175	     -0.00000000000001952790	     -5.29336685550654360000	     -2.06945333374784960000	     10.37595272400249000000	    -20.93817161585494800000	    -14.67460043702931700000	      5.58657538405588560000	    124.16715847640673000000	     96.03642961845010000000	      0.00000000000000917905	     -0.00000000000003761901	    -40.74448326885384100000	     -9.97741350635553560000	     -7.25031851439397010000	    128.73648779076018000000	     89.73806811607084900000	      0.00000000000004393978	     -0.00000000000001583485
      1.53050000000000020000	     -1.91317963916267080000	      2.92734435422298760000	      2.92697602039331930000	      0.95228436178359399000	      1.05124107658980860000	     -0.31234217806123521000	     -7.82816651488608970000	      3.21436515362028840000	      1.75066716202858900000	    -60.93697256587008600000	     -5.05330665866310550000	     -0.00000000000004055678	     -0.00000000000010491839	     21.69069652175427300000	      8.02847507431136800000	      6.34338166981774520000	    -15.41332046899813200000	     -5.67805235521759060000	      0.00000000000003707587	     -0.00000000000001956817	     -5.31408728432288240000	     -2.09972162184110540000	     10.26724096218056200000	    -21.04560722102021600000	    -14.65864122851764900000	      5.44543568479621330000	    123.99869023918215000000	     96.05987980384472300000	      0.00000000000000922053	     -0.00000000000003775613	    -40.60441521380099800000	    -10.03172128619276600000	     -7.19808187788365390000	    128.66062337271725000000	     89.66035090640932000000	      0.00000000000004412401	     -0.00000000000001589169
      1.53150000000000010000	     -1.90348975490675580000	      2.93359577734947590000	      2.97230169918565900000	      0.95218656165071980000	      1.05059902854966290000	     -0.31237866900232292000	     -7.60811380000560260000	      3.23525574562786570000	      1.72101669341497800000	    -61.48877164722875900000	     -4.99668129304285280000	     -0.00000000000004063799	     -0.00000000000010537583	     21.67571890610755500000	      8.09152312769546890000	      6.56233804851924420000	    -15.64318553789559200000	     -5.51611224023621020000	      0.00000000000003726198	     -0.00000000000001960757	     -5.33415106208305900000	     -2.12905424391907120000	     10.15787649894470200000	    -21.15318348564805400000	    -14.64331255017416600000	      5.30416541717994150000	    123.82944109063344000000	     96.08216388632860100000	      0.00000000000000926220	     -0.00000000000003789351	    -40.46319362219788500000	    -10.08719831077787700000	     -7.14556869453411100000	    128.58359889236809000000	     89.58353663923747900000	      0.00000000000004430815	     -0.00000000000001594880
      1.53250000000000020000	     -1.89473468849801560000	      2.93925198655048980000	      3.01783478332665430000	      0.95208578699876301000	      1.04994618883639150000	     -0.31241656957684139000	     -7.38510850918023730000	      3.25588148195523170000	      1.69001345144751220000	    -62.04078886745204400000	     -4.93930436715861280000	     -0.00000000000004071829	     -0.00000000000010583386	     21.66288840669975400000	      8.15520646386919880000	      6.78178111066104620000	    -15.88189974298142500000	     -5.33830355630769040000	      0.00000000000003744696	     -0.00000000000001964684	     -5.35354337773787400000	     -2.15754156582148800000	     10.04785596582483900000	    -21.26084495676227300000	    -14.62864918644237400000	      5.16282051044141800000	    123.65943237222842000000	     96.10321211489535600000	      0.00000000000000930376	     -0.00000000000003803028	    -40.32083812084349700000	    -10.14380146948578500000	     -7.09283849961610270000	    128.50542020912349000000	     89.50777308339341700000	      0.00000000000004449204	     -0.00000000000001600631
      1.53350000000000010000	     -1.88692222099518350000	      2.94441692603253190000	      3.06355280644383530000	      0.95198187335853912000	      1.04928264329051160000	     -0.31245598826944671000	     -7.15915677510306110000	      3.27604382606215560000	      1.65761503071096470000	    -62.59301231719899100000	     -4.88109646980049930000	     -0.00000000000004079870	     -0.00000000000010629202	     21.65228195910852400000	      8.21963885775086740000	      7.00109706325295280000	    -16.12949919992295700000	     -5.14447342112702530000	      0.00000000000003763128	     -0.00000000000001968666	     -5.37228364146866520000	     -2.18528101912846930000	      9.93717112821406090000	    -21.36852891698226400000	    -14.61468500027068300000	      5.02145255360565560000	    123.48868524394084000000	     96.12295604353923300000	      0.00000000000000934543	     -0.00000000000003816770	    -40.17735978695084500000	    -10.20148863578238300000	     -7.03994815322170100000	    128.42609269684468000000	     89.43320254382173600000	      0.00000000000004467551	     -0.00000000000001606437
